<?xml version="1.0" standalone="no"?>
<!DOCTYPE svg PUBLIC "-//W3C//DTD SVG 20010904//EN"
 "http://www.w3.org/TR/2001/REC-SVG-20010904/DTD/svg10.dtd">
<svg version="1.0" xmlns="http://www.w3.org/2000/svg"
 width="1200.000000pt" height="1200.000000pt" viewBox="0 0 1200.000000 1200.000000"
 preserveAspectRatio="xMidYMid meet">
<metadata>
Created by potrace 1.14, written by Peter Selinger 2001-2017
</metadata>
<g transform="translate(0.000000,1200.000000) scale(0.100000,-0.100000)"
fill="#000000" stroke="none">
<path d="M6795 11233 c-277 -49 -614 -239 -963 -542 -312 -271 -703 -693
-1036 -1121 -32 -41 -497 -514 -1032 -1050 l-973 -975 58 -160 c110 -307 236
-530 381 -676 193 -196 405 -259 686 -205 65 13 224 75 323 127 194 102 370
227 618 441 143 124 559 537 754 748 156 169 341 374 469 520 41 46 80 90 85
96 6 6 37 41 70 79 33 37 71 80 85 95 14 15 50 56 81 91 31 35 67 75 80 90 13
14 53 58 89 98 36 40 79 88 95 106 17 18 66 72 110 120 313 344 635 661 888
873 l138 116 -6 46 c-13 94 -17 118 -41 229 -46 206 -118 385 -217 538 -47 73
-157 181 -231 227 -148 93 -324 123 -511 89z"/>
<path d="M8678 9445 c-2 -2 -23 -6 -48 -10 -55 -8 -130 -28 -190 -50 -25 -9
-52 -18 -61 -20 -15 -3 -155 -65 -189 -84 -8 -4 -51 -27 -95 -51 -215 -116
-601 -397 -855 -622 -19 -18 -55 -50 -80 -72 -166 -148 -303 -278 -580 -556
-309 -309 -429 -434 -710 -740 -162 -176 -204 -223 -295 -325 -38 -43 -79 -88
-90 -99 -16 -17 -160 -179 -360 -405 -16 -19 -35 -39 -40 -45 -6 -6 -42 -47
-80 -91 -39 -44 -73 -82 -76 -85 -3 -3 -57 -63 -119 -135 -63 -71 -119 -135
-125 -141 -6 -6 -35 -40 -65 -74 -30 -35 -74 -84 -96 -109 -23 -25 -138 -154
-255 -286 -118 -132 -223 -249 -234 -261 -11 -11 -54 -58 -95 -104 -84 -93
-88 -98 -243 -265 -130 -140 -610 -622 -713 -716 -91 -83 -174 -155 -249 -215
-33 -27 -65 -53 -71 -59 -12 -11 -27 -22 -137 -101 l-77 -55 5 -67 c8 -94 15
-173 20 -202 2 -14 7 -45 10 -70 4 -25 8 -49 9 -55 2 -5 6 -28 11 -50 76 -392
259 -633 520 -685 252 -51 591 62 1025 344 69 44 130 84 135 89 6 4 76 56 156
116 133 99 171 128 203 156 6 6 52 44 101 85 82 68 129 108 159 135 6 6 29 25
51 44 368 312 1185 1129 1760 1761 28 30 61 66 75 81 14 14 59 64 101 110 42
46 87 96 100 110 13 14 62 68 109 119 114 126 181 200 205 225 11 12 37 41 57
64 21 24 73 82 116 129 43 48 103 114 132 147 29 33 56 62 59 65 3 3 60 66
126 140 66 74 136 153 157 175 64 70 81 89 163 180 44 49 99 110 122 135 23
25 54 59 70 76 88 97 192 211 223 244 19 21 87 93 150 161 173 186 622 634
733 732 112 98 240 197 299 230 46 26 46 27 -2 205 -78 289 -188 501 -334 648
-103 103 -194 155 -337 191 -26 6 -255 13 -261 8z"/>
<path d="M10255 7774 c-121 -29 -305 -134 -460 -259 -94 -76 -260 -236 -365
-351 -30 -33 -73 -80 -96 -105 -63 -69 -295 -350 -300 -364 -3 -7 10 -41 29
-76 19 -35 57 -107 84 -159 256 -486 479 -764 694 -863 158 -73 344 -57 543
46 82 42 236 150 309 214 170 153 302 288 463 473 21 25 41 47 44 50 3 3 25
30 50 60 25 30 47 57 50 60 3 3 31 38 64 77 l58 73 -62 122 c-81 160 -205 377
-287 503 -173 265 -335 421 -502 483 -83 31 -227 38 -316 16z"/>
<path d="M1855 6434 c-131 -32 -228 -76 -360 -163 -170 -112 -415 -344 -644
-611 -73 -85 -141 -165 -152 -177 -39 -43 -109 -137 -109 -146 0 -15 189 -372
222 -419 10 -14 18 -29 18 -33 0 -3 34 -60 76 -125 290 -458 543 -618 854
-539 198 51 403 192 681 469 162 161 276 288 433 480 42 52 84 103 92 113 13
16 7 32 -66 174 -45 86 -93 173 -106 194 -13 21 -24 41 -24 44 0 8 -106 180
-163 265 -219 325 -422 475 -647 478 -47 0 -94 -2 -105 -4z"/>
<path d="M8198 5505 c-2 -2 -22 -5 -45 -8 -85 -12 -204 -49 -311 -98 -79 -36
-294 -162 -311 -183 -8 -9 -17 -16 -22 -16 -12 0 -222 -160 -304 -232 -268
-234 -523 -487 -863 -855 -51 -55 -100 -110 -110 -120 -28 -33 -156 -175 -172
-193 -8 -8 -123 -137 -255 -285 -132 -149 -244 -275 -250 -281 -5 -6 -44 -49
-85 -95 -41 -46 -99 -111 -129 -144 -162 -180 -290 -314 -511 -536 -296 -297
-388 -381 -547 -507 -80 -63 -80 -62 -63 -172 64 -407 214 -727 420 -891 116
-93 254 -141 405 -143 82 0 122 3 210 20 93 17 297 101 430 177 410 234 917
719 1462 1397 124 154 254 289 1103 1138 l964 963 -23 72 c-81 255 -192 488
-309 646 -140 190 -299 300 -484 336 -60 11 -191 18 -200 10z"/>
</g>
</svg>
