<?xml version="1.0" encoding="UTF-8"?>
<!-- Generator: Adobe Illustrator 23.1.1, SVG Export Plug-In . SVG Version: 6.00 Build 0)  -->
<svg version="1.1" id="Layer_1" xmlns="http://www.w3.org/2000/svg" xmlns:xlink="http://www.w3.org/1999/xlink" x="0px" y="0px" viewBox="0 0 242 237" style="enable-background:new 0 0 242 237;" xml:space="preserve">
<style type="text/css">
	.st0{fill:#333233;}
</style>
<g>
	<g>
		<path class="st0" d="M231.206,84.668c-5.314-6.731-12.753-10.628-21.964-11.336c-1.771-10.274-5.314-19.484-10.274-27.987    c19.839-11.691,22.318-29.404,22.318-30.112c0.354-2.48-1.417-4.96-3.897-5.314l0,0c-24.444-7.794-51.722-2.48-59.161-1.063    C153.623,6.377,140.516,0,120.323,0l0,0l0,0c-19.839,0-33.3,6.022-37.906,8.857c-7.439-1.771-34.363-7.085-58.807,1.417l0,0    c-2.48,0.354-4.251,2.48-3.897,4.96c0,0.709,2.834,18.422,22.318,30.112c-4.96,8.502-8.502,17.713-10.274,27.987    c-9.211,0.709-17.004,4.605-21.964,11.336C4.834,91.399,2,100.61,2,111.946C2,161.188,49.471,233.812,115.717,237    c1.063,0,2.126,0,3.543,0c0.354,0,0.709,0,1.063,0l0,0l0,0l0,0l0,0c0.354,0,0.709,0,1.063,0c1.063,0,2.126,0,3.543,0    C191.529,233.812,239,161.188,239,111.946C239,100.964,236.166,91.399,231.206,84.668 M193.655,37.906    c-1.771-2.48-3.543-4.605-5.668-6.731c6.377-2.126,13.462-4.605,20.547-7.794C205.7,27.987,201.094,33.655,193.655,37.906     M72.143,16.296c6.022,1.063,9.919,1.771,9.919,2.126c1.417,0.354,2.48,0,3.543-0.709c0,0,12.753-8.148,34.717-8.148l0,0l0,0l0,0    l0,0l0,0c21.61,0,34.363,8.148,34.717,8.148c1.063,0.709,2.48,1.063,3.543,0.709c0,0,3.897-1.063,9.919-2.126    c8.502-1.417,21.256-2.48,34.009-0.354c-8.148,3.188-15.587,6.022-22.673,8.148c-3.543,1.063-7.085,2.126-10.274,3.188    c-0.354,0-0.354,0-0.709,0c-21.256,6.022-38.614,11.336-48.534,30.466l0,0C110.404,38.26,93.045,33.3,71.789,27.278    c-0.354,0-0.354,0-0.709,0c-3.188-1.063-6.731-2.126-10.274-3.188c-7.085-2.126-14.525-4.605-22.673-8.148    C50.888,14.17,63.641,15.233,72.143,16.296 M32.466,23.381c7.085,3.188,14.17,5.668,20.547,7.794    c-2.126,2.126-3.897,4.251-5.668,6.731C39.552,33.655,35.3,27.987,32.466,23.381 M62.933,34.363    c1.771,0.709,3.897,1.063,5.668,1.771c23.735,6.731,39.677,11.336,47.117,34.363l0,0c-4.96,2.126-9.211,7.085-14.17,12.399    c-0.354,0.354-0.354,0.354-0.709,0.709c-0.709-13.108-11.336-23.381-24.444-23.381c-13.462,0-24.444,10.982-24.444,24.444    s10.982,24.444,24.444,24.444l0,0l0,0c0,0,0,0,0.354,0c14.17,0,23.735-11.336,31.529-20.193    c4.251-4.96,8.856-10.274,11.691-10.274l0,0l0,0c2.834,0,7.794,5.314,11.691,10.274c7.794,8.857,17.359,20.193,31.529,20.193    h0.354l0,0l0,0c13.462,0,24.444-10.982,24.444-24.444s-10.982-24.444-24.444-24.444c-13.108,0-23.735,10.274-24.444,23.381    c-0.354-0.354-0.354-0.354-0.709-0.709c-4.96-5.668-9.211-10.628-14.17-12.399c7.439-23.027,23.381-27.632,47.117-34.363    c1.771-0.354,3.897-1.063,5.668-1.771c13.462,12.753,22.318,30.112,23.381,49.951v0.354c0,21.256-17.004,38.614-38.26,38.614    c-9.565,0-18.067-2.48-24.444-6.731c0-1.063,0-1.771-0.709-2.48l-13.816-22.318c-0.709-1.417-2.126-2.126-3.897-2.126    c-1.417,0-3.188,0.709-3.897,2.126l-13.816,22.318c-0.354,0.709-0.709,1.771-0.709,2.48c-6.377,4.251-14.879,6.731-24.444,6.731    c-20.901,0-38.26-17.359-38.26-38.614v-0.354C40.969,64.475,49.471,46.762,62.933,34.363 M91.982,84.668    c0,8.502-6.731,15.233-15.233,15.233l0,0c-8.502,0-15.233-6.731-15.233-15.233s6.731-15.233,15.233-15.233    C85.251,69.435,91.982,76.166,91.982,84.668 M149.018,84.668c0-8.502,6.731-15.233,15.233-15.233    c8.502,0,15.233,6.731,15.233,15.233s-6.731,15.233-15.233,15.233l0,0C155.749,99.901,149.018,93.17,149.018,84.668     M129.179,116.906l-1.063,2.834l-7.794,21.61l-7.794-21.61l-1.063-2.834l6.731-11.336l1.771-3.188l1.771,2.834L129.179,116.906z     M11.211,111.946c0-9.211,2.126-16.65,6.022-21.61c3.188-4.251,7.794-6.731,13.816-7.439c0,2.126-0.354,4.251-0.354,6.377    c0,43.928,10.628,89.628,32.946,118.323C31.758,183.152,11.211,142.058,11.211,111.946 M40.614,114.072    c7.085,8.857,17.004,15.233,28.341,17.713c0.709,14.17,5.314,66.601,24.444,92.108C62.933,207.242,45.22,160.48,40.614,114.072     M120.323,228.143c-31.175,0-41.094-65.184-42.511-95.65l0,0c10.628,0,19.839-2.48,27.632-7.085l10.982,27.987    c0.709,1.771,2.48,6.022,4.251,6.022s3.543-4.251,4.251-6.022l10.628-27.987c7.439,4.605,17.004,7.085,27.278,7.085l0,0    C161.417,162.96,151.852,228.143,120.323,228.143 M147.247,223.538c19.13-25.861,23.735-77.937,24.444-92.108    c11.336-2.126,21.61-8.502,28.341-17.713C195.78,160.48,178.067,207.242,147.247,223.538 M177.359,207.596    c22.673-29.049,33.3-74.749,33.3-118.677c0-2.126,0-4.251-0.354-6.377c6.022,0.709,10.628,3.188,13.816,7.439    c3.897,4.96,6.022,12.399,6.022,21.61C229.789,142.058,209.242,183.152,177.359,207.596"/>
		<path class="st0" d="M66.475,84.668c0,5.668,4.605,10.628,10.628,10.628c5.668,0,10.628-4.605,10.628-10.628    c0-5.668-4.605-10.628-10.628-10.628C71.081,74.395,66.475,79,66.475,84.668 M83.48,82.897c0,2.834-2.48,5.314-5.314,5.314    c-2.834,0-5.314-2.48-5.314-5.314s2.48-5.314,5.314-5.314C81.354,77.937,83.48,80.063,83.48,82.897"/>
		<path class="st0" d="M153.978,84.668c0,5.668,4.605,10.628,10.628,10.628c5.668,0,10.628-4.605,10.628-10.628    c0-5.668-4.605-10.628-10.628-10.628C158.583,74.395,153.978,79,153.978,84.668 M170.982,82.897c0,2.834-2.48,5.314-5.314,5.314    c-2.834,0-5.314-2.48-5.314-5.314s2.48-5.314,5.314-5.314C168.857,77.937,170.982,80.063,170.982,82.897"/>
	</g>
</g>
</svg>