<svg width="189" height="104" viewBox="0 0 189 104" fill="none" xmlns="http://www.w3.org/2000/svg">
<path d="M21.5303 93.8052C21.5303 94.7363 21.357 95.6043 20.9948 96.4249C20.6325 97.2455 20.16 97.9557 19.5458 98.5712C18.9315 99.1867 18.2228 99.6601 17.4038 100.023C16.5848 100.386 15.7185 100.56 14.7893 100.56H3.57526V78.0552H14.805C15.7343 78.0552 16.6005 78.2288 17.4195 78.5918C18.2385 78.9548 18.9473 79.4282 19.5615 80.0437C20.1758 80.6592 20.6483 81.3693 21.0105 82.19C21.3728 83.0106 21.546 83.8786 21.546 84.8097C21.546 85.2358 21.483 85.6619 21.3728 86.1038C21.2625 86.5457 21.0893 86.9718 20.8845 87.3821C20.6798 87.7924 20.4278 88.1554 20.1285 88.5026C19.8293 88.834 19.5143 89.1181 19.152 89.339C19.5143 89.5442 19.845 89.8125 20.1443 90.1439C20.4435 90.4911 20.6798 90.854 20.9003 91.2643C21.105 91.6747 21.2625 92.1008 21.3728 92.5427C21.4673 92.953 21.5303 93.3949 21.5303 93.8052ZM8.06401 87.0665H14.7893C15.1043 87.0665 15.3878 87.0033 15.6713 86.8929C15.939 86.7824 16.1753 86.6246 16.38 86.4194C16.5848 86.2143 16.7423 85.9775 16.8525 85.6935C16.9628 85.4094 17.0258 85.1253 17.0258 84.8097C17.0258 84.4941 16.9628 84.21 16.8525 83.9259C16.7423 83.6577 16.5848 83.4209 16.38 83.2158C16.1753 83.0106 15.939 82.8528 15.6713 82.7423C15.4035 82.6319 15.1043 82.5687 14.7893 82.5687H8.06401V87.0665ZM8.06401 96.0461H14.7893C15.1043 96.0461 15.3878 95.983 15.6713 95.8725C15.939 95.7621 16.1753 95.6043 16.38 95.3991C16.5848 95.1939 16.7423 94.9572 16.8525 94.6889C16.9628 94.4206 17.0258 94.1208 17.0258 93.8052C17.0258 93.4895 16.9628 93.2055 16.8525 92.9214C16.7423 92.6531 16.5848 92.4164 16.38 92.2112C16.1753 92.0061 15.939 91.8483 15.6713 91.7378C15.4035 91.6273 15.1043 91.5642 14.7893 91.5642H8.06401V96.0461Z" fill="black"/>
<path d="M31.1378 96.4407C31.311 96.488 31.4685 96.5196 31.6418 96.5354C31.815 96.5511 31.9725 96.5511 32.1458 96.5511C32.5553 96.5511 32.9648 96.488 33.3585 96.3776C33.7523 96.2671 34.1145 96.0935 34.4453 95.8883C34.7918 95.6674 35.091 95.4149 35.3588 95.0992C35.6265 94.7836 35.847 94.4522 36.0045 94.0735L39.1388 97.2297C38.745 97.7979 38.2883 98.3029 37.7685 98.7448C37.2488 99.2024 36.6975 99.5812 36.099 99.8968C35.5005 100.212 34.8705 100.449 34.209 100.607C33.5475 100.765 32.8703 100.844 32.1615 100.844C30.9803 100.844 29.8778 100.623 28.8383 100.181C27.7988 99.739 26.8853 99.1235 26.1135 98.3502C25.3418 97.5612 24.7275 96.6301 24.2708 95.5569C23.8298 94.468 23.5935 93.2844 23.5935 91.9903C23.5935 90.6647 23.814 89.4495 24.2708 88.3448C24.7118 87.2401 25.326 86.309 26.1135 85.5357C26.8853 84.7624 27.7988 84.1627 28.8383 83.7366C29.8778 83.3105 30.9803 83.0895 32.1615 83.0895C32.8545 83.0895 33.5475 83.1684 34.209 83.342C34.8705 83.5156 35.5163 83.7524 36.1148 84.068C36.7133 84.3836 37.2803 84.7624 37.8 85.22C38.3198 85.6777 38.7765 86.1827 39.1703 86.7508L31.1378 96.4407ZM33.327 87.603C33.1223 87.5241 32.9333 87.4768 32.7443 87.461C32.5553 87.4452 32.3505 87.4294 32.1458 87.4294C31.563 87.4294 31.0118 87.5399 30.492 87.7451C29.9723 87.966 29.5313 88.2659 29.1533 88.6604C28.7753 89.0549 28.476 89.5442 28.2555 90.0965C28.035 90.6489 27.9248 91.2801 27.9248 91.9903C27.9248 92.1481 27.9248 92.3217 27.9405 92.5269C27.9563 92.732 27.9878 92.9214 28.0193 93.1266C28.0508 93.3317 28.098 93.5211 28.1453 93.7105C28.1925 93.8999 28.2713 94.0735 28.35 94.2155L33.327 87.603Z" fill="black"/>
<path d="M49.707 100.544C48.6675 100.544 47.7068 100.354 46.7933 99.9599C45.8798 99.5654 45.0923 99.0288 44.3993 98.3502C43.722 97.6716 43.1708 96.8668 42.7928 95.9514C42.399 95.0361 42.21 94.0734 42.21 93.0319V88.0449H40.131V83.7839H42.21V77.0768H46.4625V83.7839H52.9358V88.0449H46.4625V93.0319C46.4625 93.4738 46.5413 93.8999 46.7145 94.2944C46.8878 94.6889 47.1083 95.0361 47.4075 95.3202C47.7068 95.62 48.0375 95.841 48.447 96.0146C48.8408 96.1882 49.266 96.2671 49.7228 96.2671H52.9672V100.528H49.707V100.544Z" fill="black"/>
<path d="M63.7403 100.544C62.7008 100.544 61.74 100.354 60.8265 99.9599C59.913 99.5654 59.1255 99.0288 58.4325 98.3502C57.7553 97.6716 57.204 96.8668 56.826 95.9514C56.448 95.0361 56.2433 94.0734 56.2433 93.0319V88.0449H54.1643V83.7839H56.2433V77.0768H60.4958V83.7839H66.969V88.0449H60.4958V93.0319C60.4958 93.4738 60.5745 93.8999 60.7478 94.2944C60.921 94.6889 61.1415 95.0361 61.4408 95.3202C61.74 95.62 62.0708 95.841 62.4803 96.0146C62.874 96.1882 63.2993 96.2671 63.756 96.2671H67.0005V100.528H63.7403V100.544Z" fill="black"/>
<path d="M76.0568 96.4407C76.23 96.488 76.3875 96.5196 76.5608 96.5354C76.734 96.5511 76.8915 96.5511 77.0648 96.5511C77.4742 96.5511 77.8838 96.488 78.2775 96.3776C78.6713 96.2671 79.0335 96.0935 79.3642 95.8883C79.7107 95.6674 80.01 95.4149 80.2778 95.0992C80.5455 94.7836 80.766 94.4522 80.9235 94.0735L84.0577 97.2297C83.664 97.7979 83.2072 98.3029 82.6875 98.7448C82.1677 99.2024 81.6165 99.5812 81.018 99.8968C80.4195 100.212 79.7895 100.449 79.128 100.607C78.4665 100.765 77.7893 100.844 77.0805 100.844C75.8993 100.844 74.7968 100.623 73.7573 100.181C72.7178 99.739 71.8043 99.1235 71.0325 98.3502C70.2608 97.5612 69.6465 96.6301 69.1898 95.5569C68.733 94.468 68.5125 93.2844 68.5125 91.9903C68.5125 90.6647 68.733 89.4495 69.1898 88.3448C69.6308 87.2401 70.245 86.309 71.0325 85.5357C71.8043 84.7624 72.7178 84.1627 73.7573 83.7366C74.7968 83.3105 75.8993 83.0895 77.0805 83.0895C77.7735 83.0895 78.4665 83.1684 79.128 83.342C79.7895 83.5156 80.4352 83.7524 81.0337 84.068C81.6322 84.3836 82.1992 84.7624 82.719 85.22C83.2387 85.6777 83.6955 86.1827 84.0892 86.7508L76.0568 96.4407ZM78.246 87.603C78.0412 87.5241 77.8523 87.4768 77.6633 87.461C77.4743 87.4452 77.2695 87.4294 77.0648 87.4294C76.482 87.4294 75.9308 87.5399 75.411 87.7451C74.8913 87.966 74.4503 88.2659 74.0723 88.6604C73.6943 89.0549 73.395 89.5442 73.1745 90.0965C72.954 90.6489 72.8438 91.2801 72.8438 91.9903C72.8438 92.1481 72.8438 92.3217 72.8595 92.5269C72.8753 92.732 72.9068 92.9214 72.9383 93.1266C72.9698 93.3317 73.017 93.5211 73.0643 93.7105C73.1115 93.8999 73.1903 94.0735 73.269 94.2155L78.246 87.603Z" fill="black"/>
<path d="M90.4838 100.544H86.2155V83.7523H87.255L88.6568 85.7408C89.3498 85.1096 90.1215 84.6361 91.0035 84.2889C91.8855 83.9417 92.7833 83.7839 93.7283 83.7839H97.5083V88.0449H93.7283C93.2873 88.0449 92.862 88.1238 92.4525 88.2974C92.0588 88.471 91.7123 88.692 91.413 88.9918C91.1138 89.2917 90.8933 89.6231 90.72 90.0334C90.5468 90.4279 90.468 90.854 90.468 91.3117V100.544H90.4838Z" fill="black"/>
<path d="M117.889 93.8052C117.889 94.7363 117.716 95.6043 117.353 96.4249C116.991 97.2455 116.519 97.9557 115.904 98.5712C115.29 99.1867 114.581 99.6601 113.762 100.023C112.943 100.386 112.077 100.56 111.148 100.56H99.918V78.0552H111.148C112.077 78.0552 112.943 78.2288 113.762 78.5918C114.581 78.9548 115.29 79.4282 115.904 80.0437C116.519 80.6592 116.991 81.3693 117.353 82.19C117.716 83.0106 117.889 83.8786 117.889 84.8097C117.889 85.2358 117.826 85.6619 117.716 86.1038C117.605 86.5457 117.432 86.9718 117.227 87.3821C117.023 87.7924 116.771 88.1554 116.471 88.5026C116.172 88.834 115.857 89.1181 115.495 89.339C115.857 89.5442 116.188 89.8125 116.487 90.1439C116.786 90.4911 117.023 90.854 117.243 91.2643C117.448 91.6747 117.605 92.1008 117.716 92.5427C117.842 92.953 117.889 93.3949 117.889 93.8052ZM104.438 87.0665H111.164C111.479 87.0665 111.762 87.0033 112.046 86.8929C112.313 86.7824 112.55 86.6246 112.754 86.4194C112.959 86.2143 113.117 85.9775 113.227 85.6935C113.337 85.4094 113.4 85.1253 113.4 84.8097C113.4 84.4941 113.337 84.21 113.227 83.9259C113.117 83.6577 112.959 83.4209 112.754 83.2158C112.55 83.0106 112.313 82.8528 112.046 82.7423C111.778 82.6319 111.479 82.5687 111.164 82.5687H104.438V87.0665ZM104.438 96.0461H111.164C111.479 96.0461 111.762 95.983 112.046 95.8725C112.313 95.7621 112.55 95.6043 112.754 95.3991C112.959 95.1939 113.117 94.9572 113.227 94.6889C113.337 94.4206 113.4 94.1208 113.4 93.8052C113.4 93.4895 113.337 93.2055 113.227 92.9214C113.117 92.6531 112.959 92.4164 112.754 92.2112C112.55 92.0061 112.313 91.8483 112.046 91.7378C111.778 91.6273 111.479 91.5642 111.164 91.5642H104.438V96.0461Z" fill="black"/>
<path d="M125.118 100.544H120.85V83.7523H121.889L123.291 85.7408C123.984 85.1096 124.756 84.6361 125.638 84.2889C126.52 83.9417 127.417 83.7839 128.362 83.7839H132.142V88.0449H128.362C127.921 88.0449 127.496 88.1238 127.087 88.2974C126.693 88.471 126.346 88.692 126.047 88.9918C125.748 89.2917 125.528 89.6231 125.354 90.0334C125.181 90.4279 125.102 90.854 125.102 91.3117V100.544H125.118Z" fill="black"/>
<path d="M139.151 79.1915C139.151 79.586 139.072 79.9648 138.931 80.312C138.773 80.6592 138.568 80.959 138.316 81.2115C138.049 81.464 137.749 81.6692 137.403 81.827C137.056 81.9848 136.678 82.048 136.285 82.048C135.891 82.048 135.513 81.969 135.166 81.827C134.82 81.6692 134.521 81.464 134.253 81.2115C134.001 80.959 133.796 80.6592 133.639 80.312C133.481 79.9648 133.418 79.6018 133.418 79.1915C133.418 78.797 133.497 78.434 133.639 78.0868C133.796 77.7396 134.001 77.4398 134.253 77.1715C134.505 76.919 134.804 76.7138 135.166 76.556C135.513 76.3982 135.891 76.3351 136.285 76.3351C136.678 76.3351 137.056 76.414 137.403 76.556C137.749 76.7138 138.064 76.919 138.316 77.1715C138.584 77.424 138.789 77.7238 138.931 78.0868C139.072 78.434 139.151 78.797 139.151 79.1915ZM138.411 100.544H134.111V83.7524H138.411V100.544Z" fill="black"/>
<path d="M148.333 96.4407C148.507 96.488 148.664 96.5196 148.837 96.5354C149.011 96.5511 149.168 96.5511 149.341 96.5511C149.751 96.5511 150.16 96.488 150.554 96.3776C150.948 96.2671 151.31 96.0935 151.641 95.8883C151.987 95.6674 152.287 95.4149 152.554 95.0992C152.822 94.7836 153.043 94.4522 153.2 94.0735L156.334 97.2297C155.941 97.7979 155.484 98.3029 154.964 98.7448C154.445 99.2024 153.893 99.5812 153.295 99.8968C152.696 100.212 152.066 100.449 151.405 100.607C150.743 100.765 150.066 100.844 149.357 100.844C148.176 100.844 147.073 100.623 146.034 100.181C144.994 99.739 144.081 99.1235 143.309 98.3502C142.537 97.5612 141.923 96.6301 141.466 95.5569C141.01 94.468 140.789 93.2844 140.789 91.9903C140.789 90.6647 141.01 89.4495 141.466 88.3448C141.907 87.2401 142.522 86.309 143.309 85.5357C144.081 84.7624 144.994 84.1627 146.034 83.7366C147.073 83.3105 148.176 83.0895 149.357 83.0895C150.05 83.0895 150.743 83.1684 151.405 83.342C152.066 83.5156 152.712 83.7524 153.311 84.068C153.909 84.3836 154.476 84.7624 154.996 85.22C155.515 85.6777 155.972 86.1827 156.366 86.7508L148.333 96.4407ZM150.538 87.603C150.334 87.5241 150.145 87.4768 149.956 87.461C149.767 87.4452 149.562 87.4294 149.357 87.4294C148.774 87.4294 148.223 87.5399 147.703 87.7451C147.184 87.966 146.743 88.2659 146.365 88.6604C145.987 89.0549 145.687 89.5442 145.467 90.0965C145.246 90.6489 145.136 91.2801 145.136 91.9903C145.136 92.1481 145.136 92.3217 145.152 92.5269C145.168 92.732 145.199 92.9214 145.231 93.1266C145.262 93.3317 145.309 93.5211 145.357 93.7105C145.404 93.8999 145.483 94.0735 145.561 94.2155L150.538 87.603Z" fill="black"/>
<path d="M163.926 100.544H159.658V88.0134H157.579V83.7524H159.658V82.9475C159.658 81.9059 159.847 80.9432 160.241 80.0279C160.634 79.1126 161.17 78.3235 161.847 77.6449C162.524 76.9663 163.328 76.4297 164.241 76.051C165.155 75.6564 166.115 75.4671 167.155 75.4671H170.368V79.7281H167.155C166.698 79.7281 166.273 79.807 165.879 79.9648C165.485 80.1226 165.154 80.3593 164.855 80.6434C164.572 80.9275 164.336 81.2747 164.178 81.6692C164.005 82.0637 163.926 82.4898 163.926 82.9475V83.7524H169.171V88.0134H163.926V100.544Z" fill="black"/>
<path d="M180.212 100.544H170.446V96.2829H180.212C180.511 96.2829 180.747 96.1724 180.968 95.9672C181.172 95.7621 181.283 95.5096 181.283 95.2097C181.283 94.9099 181.172 94.7047 180.968 94.61C180.763 94.5153 180.511 94.468 180.212 94.468H175.77C175.03 94.468 174.337 94.326 173.691 94.0419C173.045 93.7578 172.478 93.3791 172.006 92.8898C171.533 92.4006 171.139 91.8325 170.872 91.1854C170.588 90.5384 170.462 89.844 170.462 89.1023C170.462 88.3606 170.604 87.6662 170.872 87.0191C171.155 86.3721 171.533 85.804 172.006 85.3305C172.478 84.8571 173.045 84.4783 173.691 84.1943C174.337 83.9102 175.03 83.7839 175.77 83.7839H184.433V88.0449H175.77C175.471 88.0449 175.234 88.1554 175.014 88.3606C174.809 88.5657 174.699 88.8182 174.699 89.1181C174.699 89.4179 174.809 89.6862 175.014 89.8914C175.219 90.1123 175.471 90.207 175.77 90.207H180.212C180.936 90.207 181.629 90.3333 182.275 90.57C182.921 90.8225 183.488 91.1539 183.96 91.5958C184.433 92.0377 184.826 92.5584 185.11 93.1739C185.393 93.7894 185.535 94.468 185.535 95.194C185.535 95.9357 185.393 96.6301 185.11 97.2771C184.826 97.9241 184.448 98.4923 183.96 98.9657C183.488 99.4549 182.921 99.8337 182.275 100.118C181.629 100.418 180.936 100.544 180.212 100.544Z" fill="black"/>
<path d="M117.7 20.1529C109.163 24.9505 73.3005 76.2561 72.0247 50.3587C84.231 42.4206 112.77 -3.06162 117.7 20.1529Z" fill="#FABE00"/>
<path d="M114.912 45.4507C114.943 45.4191 108.927 51.4476 102.658 57.7287C89.523 74.678 84.042 69.3754 83.16 61.6898C94.311 53.0731 109.084 26.292 114.912 45.4507Z" fill="#18D1BF"/>
<path d="M128.93 31.4051C120.566 41.963 117.952 39.4695 113.762 31.1526C122.126 20.5948 124.724 23.0883 128.93 31.4051Z" fill="#18D1BF"/>
<path d="M74.1983 25.708C74.1668 25.7396 80.1833 19.7111 86.4518 13.43C99.5873 -3.53506 105.068 1.76752 105.95 9.46889C94.7993 18.0698 80.0258 44.8668 74.1983 25.708Z" fill="#EA5504"/>
<path d="M60.1808 39.7536C68.544 29.1958 71.1585 31.6892 75.348 40.0061C66.9847 50.5639 64.3703 48.0704 60.1808 39.7536Z" fill="#EA5504"/>
</svg>
