<?xml version="1.0" encoding="utf-8"?>
<svg version="1.1" xmlns="http://www.w3.org/2000/svg" xmlns:xlink="http://www.w3.org/1999/xlink" x="0px" y="0px"
	 viewBox="0 0 471 262" style="enable-background:new 0 0 471 262;" xml:space="preserve">
    <style type="text/css">
        path{fill:#FFFFFF;}
        .st1{fill:#FABE00;}
        .st2{fill:#74C6BE;}
        .st3{fill:#EA5504;}
    </style>
    <path class="st0" d="M54.2,236.2c0,2.3-0.4,4.5-1.3,6.5c-0.9,2-2.1,3.8-3.6,5.3c-1.5,1.5-3.3,2.7-5.3,3.6c-2,0.9-4.2,1.3-6.5,1.3
        H9.7v-55.7h27.8c2.3,0,4.5,0.4,6.5,1.3c2,0.9,3.8,2.1,5.3,3.6c1.5,1.5,2.7,3.3,3.6,5.3c0.9,2,1.3,4.2,1.3,6.5
        c0,1-0.1,2.1-0.4,3.2c-0.3,1.1-0.7,2.1-1.2,3.1c-0.5,1-1.1,1.9-1.9,2.8c-0.7,0.8-1.5,1.5-2.4,2.1c0.9,0.5,1.7,1.2,2.4,2
        c0.7,0.8,1.3,1.8,1.9,2.8c0.5,1,0.9,2.1,1.2,3.2C54.1,234,54.2,235.1,54.2,236.2z M20.8,219.5h16.7c0.8,0,1.5-0.1,2.2-0.4
        c0.7-0.3,1.3-0.7,1.8-1.2s0.9-1.1,1.2-1.8c0.3-0.7,0.4-1.4,0.4-2.2c0-0.8-0.1-1.5-0.4-2.2c-0.3-0.7-0.7-1.3-1.2-1.8
        c-0.5-0.5-1.1-0.9-1.8-1.2c-0.7-0.3-1.4-0.4-2.2-0.4H20.8V219.5z M20.8,241.7h16.7c0.8,0,1.5-0.1,2.2-0.4
        c0.7-0.3,1.3-0.7,1.8-1.2c0.5-0.5,0.9-1.1,1.2-1.8c0.3-0.7,0.4-1.4,0.4-2.2c0-0.8-0.1-1.5-0.4-2.2c-0.3-0.7-0.7-1.3-1.2-1.8
        c-0.5-0.5-1.1-0.9-1.8-1.2c-0.7-0.3-1.4-0.4-2.2-0.4H20.8V241.7z"/>
    <path class="st0" d="M78.1,242.7c0.4,0.1,0.8,0.2,1.2,0.3c0.4,0,0.8,0.1,1.2,0.1c1,0,2-0.1,3-0.4c1-0.3,1.9-0.7,2.7-1.2
        c0.8-0.5,1.6-1.2,2.3-1.9c0.7-0.8,1.2-1.6,1.6-2.5l7.8,7.8c-1,1.4-2.1,2.7-3.4,3.8c-1.3,1.1-2.7,2.1-4.2,2.8
        c-1.5,0.8-3.1,1.4-4.7,1.8c-1.6,0.4-3.3,0.6-5.1,0.6c-2.9,0-5.7-0.5-8.3-1.6c-2.6-1.1-4.8-2.6-6.8-4.5c-1.9-1.9-3.4-4.3-4.6-6.9
        c-1.1-2.7-1.7-5.6-1.7-8.8c0-3.3,0.6-6.3,1.7-9c1.1-2.7,2.6-5,4.6-6.9c1.9-1.9,4.2-3.4,6.8-4.5c2.6-1.1,5.3-1.6,8.3-1.6
        c1.7,0,3.4,0.2,5.1,0.6c1.7,0.4,3.2,1,4.7,1.8c1.5,0.8,2.9,1.7,4.2,2.9c1.3,1.1,2.4,2.4,3.4,3.8L78.1,242.7z M83.5,220.8
        c-0.5-0.2-1-0.3-1.5-0.3c-0.5-0.1-1-0.1-1.5-0.1c-1.5,0-2.8,0.3-4.1,0.8c-1.3,0.5-2.4,1.3-3.3,2.3c-0.9,1-1.7,2.2-2.2,3.6
        c-0.5,1.4-0.8,2.9-0.8,4.7c0,0.4,0,0.8,0.1,1.3c0,0.5,0.1,1,0.2,1.5c0.1,0.5,0.2,1,0.3,1.5c0.1,0.5,0.3,0.9,0.5,1.2L83.5,220.8z"
        />
    <path class="st0" d="M124.1,252.8c-2.6,0-5-0.5-7.2-1.5s-4.2-2.3-5.9-4c-1.7-1.7-3-3.7-4-5.9c-1-2.3-1.5-4.7-1.5-7.2v-12.3h-5.2
        v-10.6h5.2v-16.6h10.6v16.6h16.1v10.6h-16.1v12.3c0,1.1,0.2,2.2,0.6,3.1c0.4,1,1,1.8,1.7,2.5c0.7,0.7,1.6,1.3,2.6,1.7
        c1,0.4,2,0.6,3.1,0.6h8v10.6H124.1z"/>
    <path class="st0" d="M158.9,252.8c-2.6,0-5-0.5-7.2-1.5c-2.3-1-4.2-2.3-5.9-4c-1.7-1.7-3-3.7-4-5.9s-1.5-4.7-1.5-7.2v-12.3h-5.2
        v-10.6h5.2v-16.6h10.6v16.6H167v10.6h-16.1v12.3c0,1.1,0.2,2.2,0.6,3.1c0.4,1,1,1.8,1.7,2.5c0.7,0.7,1.6,1.3,2.6,1.7
        c1,0.4,2,0.6,3.1,0.6h8v10.6H158.9z"/>
    <path class="st0" d="M189.4,242.7c0.4,0.1,0.8,0.2,1.2,0.3c0.4,0,0.8,0.1,1.2,0.1c1,0,2-0.1,3-0.4c1-0.3,1.9-0.7,2.7-1.2
        c0.8-0.5,1.6-1.2,2.3-1.9c0.7-0.8,1.2-1.6,1.6-2.5l7.8,7.8c-1,1.4-2.1,2.7-3.4,3.8c-1.3,1.1-2.7,2.1-4.2,2.8
        c-1.5,0.8-3.1,1.4-4.7,1.8c-1.6,0.4-3.3,0.6-5.1,0.6c-2.9,0-5.7-0.5-8.3-1.6c-2.6-1.1-4.8-2.6-6.8-4.5c-1.9-1.9-3.4-4.3-4.6-6.9
        c-1.1-2.7-1.7-5.6-1.7-8.8c0-3.3,0.6-6.3,1.7-9c1.1-2.7,2.6-5,4.6-6.9c1.9-1.9,4.2-3.4,6.8-4.5c2.6-1.1,5.3-1.6,8.3-1.6
        c1.7,0,3.4,0.2,5.1,0.6c1.7,0.4,3.2,1,4.7,1.8c1.5,0.8,2.9,1.7,4.2,2.9c1.3,1.1,2.4,2.4,3.4,3.8L189.4,242.7z M194.9,220.8
        c-0.5-0.2-1-0.3-1.5-0.3c-0.5-0.1-1-0.1-1.5-0.1c-1.5,0-2.8,0.3-4.1,0.8c-1.3,0.5-2.4,1.3-3.3,2.3c-0.9,1-1.7,2.2-2.2,3.6
        c-0.5,1.4-0.8,2.9-0.8,4.7c0,0.4,0,0.8,0.1,1.3c0,0.5,0.1,1,0.2,1.5c0.1,0.5,0.2,1,0.3,1.5c0.1,0.5,0.3,0.9,0.5,1.2L194.9,220.8z
        "/>
    <path class="st0" d="M225.2,252.8h-10.6v-41.6h2.6l3.5,4.9c1.7-1.6,3.6-2.7,5.8-3.6c2.2-0.8,4.4-1.3,6.8-1.3h9.4v10.6h-9.4
        c-1.1,0-2.2,0.2-3.1,0.6c-1,0.4-1.8,1-2.6,1.7c-0.7,0.7-1.3,1.6-1.7,2.6c-0.4,1-0.6,2-0.6,3.1V252.8z"/>
    <path class="st0" d="M293.2,236.2c0,2.3-0.4,4.5-1.3,6.5c-0.9,2-2.1,3.8-3.6,5.3c-1.5,1.5-3.3,2.7-5.3,3.6
        c-2,0.9-4.2,1.3-6.5,1.3h-27.8v-55.7h27.8c2.3,0,4.5,0.4,6.5,1.3c2,0.9,3.8,2.1,5.3,3.6c1.5,1.5,2.7,3.3,3.6,5.3
        c0.9,2,1.3,4.2,1.3,6.5c0,1-0.1,2.1-0.4,3.2c-0.3,1.1-0.7,2.1-1.2,3.1c-0.5,1-1.1,1.9-1.9,2.8c-0.7,0.8-1.5,1.5-2.4,2.1
        c0.9,0.5,1.7,1.2,2.4,2c0.7,0.8,1.3,1.8,1.9,2.8c0.5,1,0.9,2.1,1.2,3.2C293.1,234,293.2,235.1,293.2,236.2z M259.8,219.5h16.7
        c0.8,0,1.5-0.1,2.2-0.4c0.7-0.3,1.3-0.7,1.8-1.2c0.5-0.5,0.9-1.1,1.2-1.8c0.3-0.7,0.4-1.4,0.4-2.2c0-0.8-0.1-1.5-0.4-2.2
        c-0.3-0.7-0.7-1.3-1.2-1.8c-0.5-0.5-1.1-0.9-1.8-1.2c-0.7-0.3-1.4-0.4-2.2-0.4h-16.7V219.5z M259.8,241.7h16.7
        c0.8,0,1.5-0.1,2.2-0.4c0.7-0.3,1.3-0.7,1.8-1.2c0.5-0.5,0.9-1.1,1.2-1.8c0.3-0.7,0.4-1.4,0.4-2.2c0-0.8-0.1-1.5-0.4-2.2
        c-0.3-0.7-0.7-1.3-1.2-1.8c-0.5-0.5-1.1-0.9-1.8-1.2c-0.7-0.3-1.4-0.4-2.2-0.4h-16.7V241.7z"/>
    <path class="st0" d="M311.1,252.8h-10.6v-41.6h2.6l3.5,4.9c1.7-1.6,3.6-2.7,5.8-3.6c2.2-0.8,4.4-1.3,6.8-1.3h9.4v10.6h-9.4
        c-1.1,0-2.2,0.2-3.1,0.6c-1,0.4-1.8,1-2.6,1.7c-0.7,0.7-1.3,1.6-1.7,2.6c-0.4,1-0.6,2-0.6,3.1V252.8z"/>
    <path class="st0" d="M346,200c0,1-0.2,1.9-0.6,2.8c-0.4,0.9-0.9,1.6-1.5,2.2c-0.6,0.6-1.4,1.1-2.3,1.5c-0.9,0.4-1.8,0.6-2.8,0.6
        c-1,0-1.9-0.2-2.8-0.6c-0.9-0.4-1.6-0.9-2.3-1.5c-0.6-0.6-1.1-1.4-1.5-2.2c-0.4-0.9-0.6-1.8-0.6-2.8c0-1,0.2-1.9,0.6-2.7
        c0.4-0.9,0.9-1.6,1.5-2.3c0.6-0.6,1.4-1.1,2.3-1.5c0.9-0.4,1.8-0.6,2.8-0.6c1,0,1.9,0.2,2.8,0.6c0.9,0.4,1.6,0.9,2.3,1.5
        c0.6,0.6,1.2,1.4,1.5,2.3C345.8,198.1,346,199,346,200z M344.1,252.8h-10.7v-41.6h10.7V252.8z"/>
    <path class="st0" d="M368.7,242.7c0.4,0.1,0.8,0.2,1.2,0.3c0.4,0,0.8,0.1,1.2,0.1c1,0,2-0.1,3-0.4c1-0.3,1.9-0.7,2.7-1.2
        c0.8-0.5,1.6-1.2,2.3-1.9c0.7-0.8,1.2-1.6,1.6-2.5l7.8,7.8c-1,1.4-2.1,2.7-3.4,3.8c-1.3,1.1-2.7,2.1-4.2,2.8
        c-1.5,0.8-3.1,1.4-4.7,1.8c-1.6,0.4-3.3,0.6-5.1,0.6c-2.9,0-5.7-0.5-8.3-1.6c-2.6-1.1-4.8-2.6-6.8-4.5c-1.9-1.9-3.4-4.3-4.6-6.9
        c-1.1-2.7-1.7-5.6-1.7-8.8c0-3.3,0.6-6.3,1.7-9c1.1-2.7,2.6-5,4.6-6.9c1.9-1.9,4.2-3.4,6.8-4.5c2.6-1.1,5.3-1.6,8.3-1.6
        c1.7,0,3.4,0.2,5.1,0.6c1.7,0.4,3.2,1,4.7,1.8c1.5,0.8,2.9,1.7,4.2,2.9c1.3,1.1,2.4,2.4,3.4,3.8L368.7,242.7z M374.2,220.8
        c-0.5-0.2-1-0.3-1.5-0.3c-0.5-0.1-1-0.1-1.5-0.1c-1.5,0-2.8,0.3-4.1,0.8c-1.3,0.5-2.4,1.3-3.3,2.3c-0.9,1-1.7,2.2-2.2,3.6
        c-0.5,1.4-0.8,2.9-0.8,4.7c0,0.4,0,0.8,0.1,1.3c0,0.5,0.1,1,0.2,1.5c0.1,0.5,0.2,1,0.3,1.5c0.1,0.5,0.3,0.9,0.5,1.2L374.2,220.8z
        "/>
    <path class="st0" d="M407.4,252.8h-10.6v-31h-5.2v-10.6h5.2v-2c0-2.6,0.5-5,1.5-7.2c1-2.3,2.3-4.2,4-5.9c1.7-1.7,3.7-3,5.9-4
        s4.7-1.5,7.2-1.5h8v10.6h-8c-1.1,0-2.2,0.2-3.2,0.6c-1,0.4-1.8,1-2.5,1.7c-0.7,0.7-1.3,1.6-1.7,2.5c-0.4,1-0.6,2-0.6,3.2v2h13
        v10.6h-13V252.8z"/>
    <path class="st0" d="M447.8,252.8h-24.2v-10.6h24.2c0.7,0,1.3-0.3,1.9-0.8c0.5-0.5,0.8-1.1,0.8-1.9c0-0.8-0.3-1.2-0.8-1.5
        c-0.5-0.2-1.1-0.3-1.9-0.3h-11c-1.8,0-3.6-0.3-5.2-1c-1.6-0.7-3-1.6-4.2-2.9c-1.2-1.2-2.1-2.6-2.8-4.2c-0.7-1.6-1-3.3-1-5.2
        c0-1.8,0.3-3.6,1-5.2c0.7-1.6,1.6-3,2.8-4.2c1.2-1.2,2.6-2.1,4.2-2.8c1.6-0.7,3.3-1,5.2-1h21.5v10.6h-21.5
        c-0.7,0-1.3,0.3-1.9,0.8c-0.5,0.5-0.8,1.1-0.8,1.9c0,0.8,0.3,1.4,0.8,1.9c0.5,0.5,1.1,0.8,1.9,0.8h11c1.8,0,3.5,0.3,5.1,0.9
        c1.6,0.6,3,1.5,4.2,2.5c1.2,1.1,2.1,2.4,2.8,3.9c0.7,1.5,1,3.2,1,5c0,1.8-0.3,3.6-1,5.1s-1.6,3-2.8,4.2c-1.2,1.2-2.6,2.1-4.2,2.8
        C451.3,252.5,449.6,252.8,447.8,252.8z"/>
    <path class="st1" d="M292.8,53.9c-21.2,11.9-110.1,138.9-113.3,74.8C209.7,109,280.5-3.6,292.8,53.9z"/>
    <path class="st2" d="M285.8,116.5c0.1-0.1-14.8,14.8-30.4,30.4c-32.6,42-46.2,28.8-48.4,9.8C234.7,135.3,271.4,69,285.8,116.5z"/>
    <path class="st2" d="M320.6,81.7c-20.7,26.1-27.2,20-37.6-0.6C303.7,54.9,310.2,61.1,320.6,81.7z"/>
    <path class="st3" d="M184.8,67.6c-0.1,0.1,14.8-14.8,30.4-30.4c32.6-42,46.2-28.8,48.4-9.8C235.9,48.7,199.3,115,184.8,67.6z"/>
    <path class="st3" d="M150.1,102.3c20.7-26.1,27.2-20,37.6,0.6C167,129.1,160.5,122.9,150.1,102.3z"/>

</svg>
